Coordinates
version=1
nRows=14
nColumns=42
inDegrees=yes

Units are S.I. units (second, meters, Newtons, ...)
If the header above contains a line with 'inDegrees', this indicates whether rotational values are in degrees (yes) or radians (no).

endheader
time	pelvis_tilt	pelvis_list	pelvis_rotation	pelvis_tx	pelvis_ty	pelvis_tz	hip_flexion_r	hip_adduction_r	hip_rotation_r	knee_angle_r	knee_adduction_r	knee_angle_r_beta	ankle_angle_r	subtalar_angle_r	mtp_angle_r	hip_flexion_l	hip_adduction_l	hip_rotation_l	knee_angle_l	knee_adduction_l	knee_angle_l_beta	ankle_angle_l	subtalar_angle_l	mtp_angle_l	lumbar_extension	lumbar_bending	lumbar_rotation	arm_flex_r	arm_add_r	arm_rot_r	elbow_flex_r	pro_sup_r	wrist_flex_r	wrist_dev_r	arm_flex_l	arm_add_l	arm_rot_l	elbow_flex_l	pro_sup_l	wrist_flex_l	wrist_dev_l
      0.00000000	      8.96838707	      5.35965009	     -4.24826707	     -1.94094208	      0.96763114	      0.23921631	     -5.14673649	    -11.70885722	     -8.04565387	     61.65425271	     -2.39779497	      1.07606971	      5.14370220	     -9.37981333	     -9.23050370	      3.08592475	      4.87679277	    -12.86435640	     16.35348440	      2.09947365	      0.28542215	     11.89480343	     14.71757847	     -9.23050370	    -19.51999143	     -5.53986797	     -0.98597175	     -6.89995738	    -13.01040970	     13.31602053	     35.56753278	     90.00000001	      0.00000000	      0.00000000	     -8.70636500	    -12.27747556	     -0.12604860	     38.30145088	     90.00000001	      0.00000000	      0.00000000
      0.01000000	      8.93222118	      5.16458861	     -4.08205919	     -1.93489935	      0.96874171	      0.23850925	     -4.30577750	    -11.43356070	     -8.10305720	     61.80588727	     -2.39180324	      1.07871623	      5.57061121	     -9.26089510	     -9.21266250	      2.54398133	      4.79248194	    -12.85878652	     16.01837977	      2.01315968	      0.27957347	     12.01246004	     14.83597535	     -9.21266250	    -19.54029080	     -5.20070843	     -1.19929016	     -6.97530164	    -13.00559347	     13.30374264	     35.50648519	     90.00000001	      0.00000000	      0.00000000	     -8.33309254	    -12.39554235	     -0.09895436	     38.44584765	     90.00000001	      0.00000000	      0.00000000
      0.02000000	      8.84632702	      4.87561404	     -3.93414003	     -1.92677673	      0.97014159	      0.23789475	     -3.17349358	    -10.96208994	     -8.16138103	     61.84381305	     -2.47937026	      1.07937816	      6.44936849	     -9.05009426	     -9.18893477	      1.73780002	      4.62005440	    -12.58018924	     15.32575829	      2.03410818	      0.26748494	     12.26469959	     15.20946417	     -9.18893477	    -19.47913469	     -4.77635281	     -1.31540416	     -7.10090236	    -12.97295134	     13.28653784	     35.36373046	     90.00000001	      0.00000000	      0.00000000	     -7.79015008	    -12.60662002	     -0.03230567	     38.61936547	     90.00000001	      0.00000000	      0.00000000
      0.03000000	      8.88716916	      4.52937319	     -3.67982609	     -1.91662326	      0.97194703	      0.23705976	     -2.05112771	    -10.42585094	     -8.33112007	     61.68855950	     -2.51881376	      1.07666847	      7.55513205	     -8.28172473	     -9.14721934	      0.54248272	      4.38019948	    -12.09967199	     14.42919116	      2.17956310	      0.25183689	     12.58709798	     15.58935559	     -9.14721934	    -19.55410984	     -4.24431953	     -1.54297160	     -7.29750548	    -12.90997242	     13.16398655	     35.24038541	     90.00000001	      0.00000000	      0.00000000	     -7.13702997	    -12.88523912	      0.14529993	     38.84878006	     90.00000001	      0.00000000	      0.00000000
      0.04000000	      8.78150336	      4.19218193	     -3.41266823	     -1.90503422	      0.97361102	      0.23590364	     -0.52809343	     -9.95225048	     -8.52234034	     61.48774279	     -2.45591589	      1.07316356	      8.38325524	     -7.99110969	     -9.12578473	     -0.48372337	      4.22547479	    -12.08618515	     13.70214282	      2.03090612	      0.23914751	     12.75904887	     15.77342093	     -9.12578473	    -19.47722379	     -3.67537637	     -1.85613575	     -7.52237414	    -12.90173744	     13.10553862	     35.16887934	     90.00000001	      0.00000000	      0.00000000	     -6.50310922	    -13.15237388	      0.17323778	     39.22108740	     90.00000001	      0.00000000	      0.00000000
      0.05000000	      9.09409386	      3.76655117	     -3.10883347	     -1.89177845	      0.97592902	      0.23511714	      0.44123476	     -9.30154649	     -9.15690663	     60.70544193	     -2.70620152	      1.05950984	      9.95114948	     -6.33131099	     -9.03811944	     -2.47287078	      3.92394521	    -11.07940721	     12.21975173	      2.30200214	      0.21327490	     12.90531667	     15.79162307	     -9.03811944	    -19.81521229	     -3.07636874	     -2.10565581	     -7.84525030	    -12.74943725	     12.71282310	     35.11078013	     90.00000001	      0.00000000	      0.00000000	     -5.74704384	    -13.57671536	      0.43976355	     39.70752928	     90.00000001	      0.00000000	      0.00000000
      0.06000000	      8.76352854	      3.41237658	     -2.85925865	     -1.87827355	      0.97715546	      0.23407763	      2.37848576	     -8.72605166	     -9.23933483	     60.02602620	     -2.52625502	      1.04765179	     10.90030944	     -6.14990468	     -9.01314090	     -3.49483836	      3.70081169	    -10.83886356	     11.25330774	      2.26539571	      0.19640727	     13.13384605	     16.15150480	     -9.01314090	    -19.48787694	     -2.50148834	     -2.35665780	     -8.13947569	    -12.71066887	     12.67223021	     35.02595920	     90.00000001	      0.00000000	      0.00000000	     -5.02363805	    -13.89765224	      0.39611653	     40.23522455	     90.00000001	      0.00000000	      0.00000000
      0.07000000	      8.91149139	      3.04288509	     -2.51521186	     -1.86379795	      0.97892736	      0.23304246	      3.57538457	     -8.17822545	     -9.62751810	     58.74733800	     -2.34157590	      1.02533447	     12.02637083	     -5.16484692	     -8.78601351	     -5.49431908	      3.48095623	     -9.36732527	      9.49562168	      2.50467620	      0.16572986	     12.94165256	     15.05772492	     -8.78601351	    -19.63800482	     -1.92346318	     -2.68777506	     -8.49123024	    -12.58580893	     12.33680806	     34.98578230	     90.00000001	      0.00000000	      0.00000000	     -4.26126008	    -14.28069767	      0.42260790	     40.84397502	     90.00000001	      0.00000000	      0.00000000
      0.08000000	      8.54570936	      2.72496562	     -2.26785434	     -1.84951933	      0.97955728	      0.23210176	      5.46349741	     -7.64741889	     -9.65112539	     57.43817792	     -1.94764463	      1.00248532	     12.85315356	     -5.11415988	     -8.76297040	     -6.54338355	      3.24763433	     -9.27680516	      8.48993632	      2.47106682	      0.14817734	     13.20994453	     15.64222995	     -8.76297040	    -19.24989096	     -1.41096203	     -2.93431047	     -8.83533257	    -12.52671804	     12.25207287	     34.94591076	     90.00000001	      0.00000000	      0.00000000	     -3.56160153	    -14.62922769	      0.32430625	     41.53094807	     90.00000001	      0.00000000	      0.00000000
      0.09000000	      8.72454915	      2.28351392	     -1.97193272	     -1.83457177	      0.98070576	      0.23123025	      6.41726596	     -6.99985305	     -9.68492270	     55.44025343	     -1.36322684	      0.96761496	     13.46392910	     -5.04341941	     -8.71331800	     -8.37017467	      2.84986846	     -9.13847593	      7.23393461	      2.53182125	      0.12625598	     13.49062767	     16.28022020	     -8.71331800	    -19.39772081	     -0.77979463	     -3.21528555	     -9.19537104	    -12.42747432	     11.91196185	     34.96594126	     90.00000001	      0.00000000	      0.00000000	     -2.88377599	    -14.96699546	      0.20897389	     42.22939493	     90.00000001	      0.00000000	      0.00000000
      0.10000000	      8.28070444	      2.10250562	     -1.77510034	     -1.82023400	      0.98046324	      0.23050154	      8.21803096	     -6.61164732	     -9.72930113	     53.49938248	     -0.94579507	      0.93374037	     14.07192751	     -5.14151724	     -8.69078596	     -9.32476227	      2.71851470	     -9.09841010	      6.24100800	      2.54708169	      0.10892614	     13.71567289	     16.87569928	     -8.69078596	    -18.90375124	     -0.45059887	     -3.42933705	     -9.58695963	    -12.34331083	     11.81720181	     34.95319465	     90.00000001	      0.00000000	      0.00000000	     -2.25319870	    -15.33307844	      0.09503216	     43.07404441	     90.00000001	      0.00000000	      0.00000000
      0.11000000	      8.45720079	      1.75926282	     -1.53539146	     -1.80546607	      0.98080997	      0.22990178	      8.95132694	     -6.03375334	     -9.64263885	     50.85556851	     -0.29602019	      0.88759711	     14.30938134	     -5.63196571	     -8.64499461	    -11.10702817	      2.36762358	     -9.11609256	      5.04915425	      2.66082659	      0.08812437	     13.98235445	     17.62989598	     -8.64499461	    -19.04479426	      0.03818304	     -3.67238335	     -9.94296796	    -12.22894803	     11.50685377	     35.00658837	     90.00000001	      0.00000000	      0.00000000	     -1.63115875	    -15.68239093	     -0.04540970	     43.87990019	     90.00000001	      0.00000000	      0.00000000
      0.12000000	      8.15755881	      1.65305594	     -1.35333011	     -1.79114067	      0.97996570	      0.22931974	     10.28391520	     -5.73230346	     -9.59674396	     48.23309094	      0.22530918	      0.84182625	     14.59888355	     -5.95233053	     -8.61548305	    -12.21181878	      2.28317584	     -9.18809017	      4.08156813	      2.70735271	      0.07123680	     14.32190214	     18.36437494	     -8.61548305	    -18.67418559	      0.26120281	     -3.91020952	    -10.29165576	    -12.11982635	     11.36754480	     35.00374489	     90.00000001	      0.00000000	      0.00000000	     -1.07352218	    -16.04980125	     -0.15875826	     44.74749952	     90.00000001	      0.00000000	      0.00000000
      0.13000000	      7.93171777	      1.58541486	     -1.22016773	     -1.77692110	      0.97881724	      0.22877322	     11.40873604	     -5.49167432	     -9.58218329	     45.31233259	      0.74128179	      0.79084940	     14.74534441	     -6.22949019	     -8.59163492	    -13.33336606	      2.27824078	     -9.31899584	      3.23739841	      2.66287252	      0.05650326	     14.69600787	     19.16218957	     -8.59163492	    -18.39079391	      0.43161554	     -4.09141736	    -10.62378432	    -12.02454416	     11.22486613	     34.99776085	     90.00000001	      0.00000000	      0.00000000	     -0.52228181	    -16.39123883	     -0.26459635	     45.63952015	     90.00000001	      0.00000000	      0.00000000
